<svg width="24" height="22" viewBox="0 0 24 22" fill="none" xmlns="http://www.w3.org/2000/svg">
<g clip-path="url(#clip0_113_97)">
<path d="M24.0017 7.83122V17.1183C23.9224 18.0188 22.9925 19.0736 22.103 19.0736H21.1889V21.4441C21.1889 21.4637 21.0292 21.7575 21.0028 21.7875C20.7767 22.0422 20.381 22.0544 20.0998 21.8953L16.0066 19.0761C13.748 18.9384 11.3063 19.2506 9.06942 19.0755C7.92927 18.9861 7.11555 18.1382 7.03042 16.9493C7.01692 16.7608 7.00753 15.7047 7.05567 15.6031L8.31147 14.713C10.519 14.5238 12.875 14.8342 15.0743 14.6768C16.6201 14.566 18.3773 13.0741 18.3773 11.3752V5.87646H22.1042C23.0124 5.87646 23.9054 6.93251 24.0029 7.83183L24.0017 7.83122Z" fill="#F6E9D9"/>
<path d="M2.81161 13.2083H1.8975C0.977519 13.2083 0.00234839 12.0819 0 11.1299V2.08833C0.0792583 1.10575 0.706279 0.309281 1.62979 0.0729723C6.05181 -0.0733434 10.4997 0.0533819 14.9311 0.00869131C16.0718 0.0980724 16.8844 0.945969 16.9701 2.13486C17.1779 5.01954 16.8092 8.17115 16.9701 11.084C16.8867 12.2404 16.0947 13.1098 14.9751 13.2077C12.7547 13.4018 10.2948 13.0547 8.04912 13.22C6.49683 14.0415 5.17527 15.3106 3.62827 16.1383C3.43922 16.1799 3.12571 16.0673 2.99772 15.9228C2.97072 15.8928 2.81161 15.599 2.81161 15.5794V13.2089V13.2083ZM3.36231 4.42143C2.61611 4.55244 2.66425 5.8301 3.44451 5.87601H13.5232C14.3463 5.79459 14.3463 4.4906 13.5232 4.40918L3.36231 4.42081V4.42143ZM3.36231 7.35447C2.64664 7.47997 2.64194 8.69703 3.40224 8.80477H9.34719C10.1128 8.6958 10.1128 7.45549 9.34719 7.34713L3.36231 7.35447Z" fill="#F6E9D9"/>
</g>
<defs>
<clipPath id="clip0_113_97">
<rect width="24" height="22" fill="white"/>
</clipPath>
</defs>
</svg>
