<?xml version="1.0" encoding="UTF-8"?>
<svg id="Layer_2" data-name="Layer 2" xmlns="http://www.w3.org/2000/svg" viewBox="0 0 228.99 185.62">
  <defs>
    <style>
      .cls-1 {
        stroke: #000;
        stroke-miterlimit: 10;
        stroke-width: 2px;
      }
    </style>
  </defs>
  <g id="Layer_1-2" data-name="Layer 1">
    <g>
      <path class="cls-1" d="M57.56,117.03c-6.82-7.56-16.3-15.99-18.8-26.31-1.39-5.75.82-11.66,7.61-11.02,4.12.39,17.4,13.01,21.72,16.29,23.64,17.99,41.47,20.35,43.77,55.26.28,4.22,0,28.76-2.71,30.58-1.03.69-2.83.44-3.83-.31-2.15-1.71.31-10.94.43-13.94.22-5.21.32-11.85,0-17.01-1.89-30.92-18.21-32.96-39.3-48.87-6.9-5.2-13.22-11.34-20.19-16.48-5.27,2.19,2.35,13.42,4.64,16.43,6.88,9.06,18.18,16.11,25.33,24.86,1.4,1.72,5.98,7.31,1.92,8.71s-4.7-1.29-7.07-2.88c-25.17-17-43.66-20.47-52.52-53.29-1.77-6.54-2.27-13.43-4.57-19.85-1.53-4.26-7.95-16.35-7.33-4.2,1.04,20.17,3.81,46.76,13.23,64.77,12.85,24.58,50.12,29.45,56.36,56.91.59,2.6,1.55,10.39-3.77,7.16-1.49-.9-3.47-11.58-4.72-14.27-4.47-9.63-28.55-21.09-37.65-28.82-10.8-9.18-16.46-18.17-20.52-31.71C5.58,95.65-1.17,62.22,1.68,49.31c1.22-5.52,6.95-7.68,11.1-3.82,7.44,6.92,8.93,24.98,12.04,34.76,5.78,18.22,14.24,25.78,30.1,35.69.84.53,1.5,1.31,2.64,1.08Z"/>
      <path class="cls-1" d="M155.35,182.03c-1.11-9.13,1.31-18.83,8.4-24.97,15.56-13.47,35.68-21.32,46.14-41.36,9.41-18.03,10.07-42.77,12.47-62.67l-1.65-1.13c-3.07,0-7.1,10.98-7.99,13.73-6.24,19.18-6.91,31.52-23.23,45.95-10.31,9.11-22.34,13.06-32.17,20.74-1.06.83-1.54,2.58-2.52,2.91-3.14,1.09-7.17-1.84-5.01-5.02,10.63-9.7,21.27-19.6,29.77-31.27,1.52-2.09,5.63-7.37,6.07-9.54.23-1.13.22-6.96-1.53-6.27-10.72,7.28-19.68,17.27-29.88,25.07-6.64,5.07-19.08,11.21-23.69,17.69-5.77,8.11-7.15,29.76-6.48,39.62.2,2.95,3.33,16.32,1.4,17.68-4.91,3.46-6.39-7.69-6.75-10.3-1.64-11.95-.31-35.61,4.97-46.4,5.59-11.43,19.16-16.72,28.8-24.11,9.24-7.08,16.99-16.09,26.98-22.53,4.84-3.12,10.69-6.62,12.26,1.73,2.44,13.02-12.98,26.29-20.19,35.79.63,1.09,1.52-.26,2.1-.61,8.43-5.21,19.39-14.66,24.04-23.44,5.86-11.06,10.17-42.2,21.18-46.64,9.82-3.97,9.35,5.57,8.97,12.36-2.05,36.77-8.83,64.38-38.73,87.42-8.89,6.85-24.16,13.25-27.24,24.31-.79,2.82-1.14,11.35-3.69,11.95l-2.82-.69Z"/>
      <path class="cls-1" d="M56.97,76.25c-2.28-1.43,1.3-11.98,2.29-14.15,3.71-8.16,12.83-15.5,22.23-14.07,2.39.36,6.2,2.97,8.14,2.44,1.04-.28,3.66-3.06,5.03-3.85,13.48-7.76,29.85-6.91,41.94,3.03,7.72-5.04,15.85-4.52,24.02-.71,5.62,2.63,12.04,18.56,11.41,24.27-.4,3.54-4.75,4.56-6.26.43-2.33-6.39-1.71-14.87-8.5-19.31-2.98-1.94-10.83-2.59-13.94-1.12-3.92,1.86-.06,5.24.93,8.02,2.79,7.84,2.72,21.48-6.02,25.55-14.56,6.77-14.24-14.77-11.28-23.48.92-2.7,4.58-7.27,3.79-9.56-8.49-6.84-23.62-8.12-32.7-1.7-6.23,4.41-.55,8.94.15,15.22.74,6.6-1.38,18.78-9.87,19.02-6.49.19-9.86-8.12-9.78-13.68s2.23-12.54,6.14-16.27c-8.62-7.25-18.47,2.93-21.54,11-1.39,3.64-.81,10.29-6.17,8.91ZM134.4,60.26c-3.28,3.2-6.19,22.2.81,21.54,3.46-.32,5.08-9.86,4.99-12.59-.06-1.88-2.03-9.79-4.17-9.73-.55.2-1.2.36-1.63.77ZM86.24,79.54c2.57,2.49,5.09-2.16,5.75-4.4,1.61-5.46-.38-20.76-5.62-11.04-2.01,3.73-3.46,12.21-.13,15.44Z"/>
      <path class="cls-1" d="M111.66,1.23c15.37-2.42,25.43,14.78,15.45,26.97-7.21,8.8-17.75,9.27-26.09,1.65-9.94-9.09-1.77-26.67,10.64-28.62ZM121.8,10.09c-9.72-11.44-28.33,7.28-14.67,17.04,12.03,8.6,22.31-8.05,14.67-17.04Z"/>
      <path class="cls-1" d="M148.31,13.45c24.76-3.68,19.17,34.36-3.26,27.32-11.96-3.76-10.65-25.25,3.26-27.32ZM148.98,18.82c-8.29,1.43-7.79,17.12,1.59,17.16,11.6.05,9.94-19.15-1.59-17.16Z"/>
      <path class="cls-1" d="M74.35,19.53c8.62-1.36,16.1,7.09,14.8,15.47-2.18,14.13-25.3,13.7-26.69-.57-.64-6.6,5.32-13.87,11.89-14.91ZM74.33,25.62c-6.67,1.5-8.27,11.59-1.2,13.8,12.9,4.02,12.62-16.36,1.2-13.8Z"/>
    </g>
  </g>
</svg>