<svg width="189" height="172" viewBox="0 0 189 172" fill="none" xmlns="http://www.w3.org/2000/svg">
<path d="M115.847 1.1389L188.175 83.62C189.281 84.8764 189.276 86.7559 188.175 88.0173L115.319 170.866C114.684 171.586 113.767 172.005 112.804 172.005H62.3646C59.491 172.005 57.9543 168.629 59.8444 166.474L128.387 88.3238C129.488 87.0674 129.488 85.1931 128.387 83.9367L59.829 5.53109C57.944 3.37075 59.4807 0 62.3544 0H113.327C114.29 0 115.212 0.413683 115.847 1.1389Z" fill="#F6E9D9"/>
<g clip-path="url(#clip0_97_1442)">
<path d="M28.708 2C28.1909 4.00277 28.9486 6.84558 29.6909 8.77664C32.1634 15.2203 38.9565 19.2259 41.5571 25.6286C44.4545 32.7638 42.0741 41.3025 47.3468 47.6284C49.4406 50.1382 52.3124 51.9669 54.2782 54.5945C57.6773 59.1328 58.5783 64.716 60.4928 69.9201C63.4722 78.0234 66.0011 80.0262 63.6104 89.369C61.875 96.1508 59.0902 100.156 60.7795 107.619C61.4706 110.667 65.9857 120.988 68.1869 122.909C69.6817 124.215 71.6424 124.359 72.5126 122.361C74.6422 117.5 68.3405 107.911 68.2893 102.169C68.2637 99.4853 70.3677 92.9648 73.5262 96.955C75.5739 99.5365 79.3723 113.889 79.6539 117.459C80.3552 126.305 74.7548 131.796 71.5861 139.259C71.0076 140.622 70.5571 142.967 70.0298 143.956C69.4053 145.139 64.7827 150.098 63.5643 151.388C63.1855 151.793 62.7146 152.382 62.1719 152.546C61.3477 147.608 63.1292 142.85 63.6462 138.04C65.2639 122.924 51.9643 116.501 53.0291 101.708C53.1213 100.412 53.7714 96.1098 54.2423 95.0495C54.9897 93.3643 58.7421 90.6035 59.7045 88.7031C60.416 87.2996 60.2318 86.2035 59.3769 84.9281C58.7779 84.0368 56.9299 82.5514 56.5562 81.7267C56.1313 80.774 56.1927 78.6893 55.9573 77.4599C53.2134 63.0359 47.567 60.7975 39.9599 50.1485C35.4243 43.8021 36.4993 39.817 35.0813 32.7894C33.0081 22.5092 22.9233 17.2538 20.4354 7.60366C19.9491 5.72382 20.1539 3.49568 18.7461 2H28.7029L28.708 2Z" fill="#F6E9D9"/>
<path d="M87.0568 124.753L86.5961 124.635C86.7599 124.015 86.9442 123.391 87.0312 122.755C90.3228 98.5531 72.7078 83.6578 65.9812 62.8105C62.4951 52.0027 65.8379 45.2619 66.6826 34.7768C66.9232 31.8009 66.8566 28.8351 66.6826 25.8643L74.2692 34.3466C73.7317 41.5381 71.0339 48.2892 72.0679 55.5678C72.4058 57.9189 73.23 60.4031 74.0286 62.6415C80.4019 80.4821 95.14 95.6847 94.6537 115.805L87.0568 124.768V124.753Z" fill="#F6E9D9"/>
<path d="M100.264 64.0708L109.698 74.8632C109.698 78.751 107.026 81.4555 105.613 84.5954C103.366 89.5946 107.016 95.5927 108.045 100.556L102.69 106.682C102.137 106.785 102.409 106.431 102.352 106.103C99.5727 89.989 89.0016 78.8739 83.0839 64.455C80.0584 57.0841 79.352 49.9029 81.0413 42.0659L87.302 49.1192C87.988 50.2973 87.6041 52.0388 87.7577 53.2937C88.5562 59.886 91.6021 65.6843 95.0678 71.2265C96.1582 72.9731 99.6085 78.9815 101.927 75.3498C103.898 72.2612 101.088 67.2158 100.259 64.0708H100.264Z" fill="#F6E9D9"/>
<path d="M44.2194 106.687C43.9736 116.998 53.8127 123.821 54.6368 133.907C55.1283 139.889 52.8963 145.559 53.2393 151.281C53.4236 154.344 54.5037 157.453 55.5736 160.296L50.8179 165.741C49.1286 163.221 47.7516 160.158 47.1066 157.182C45.2637 148.684 48.4683 140.263 46.0059 131.648C44.2245 125.409 39.607 120.722 37.0781 114.862L44.2194 106.682V106.687Z" fill="#F6E9D9"/>
<path d="M11.5741 2C9.63905 4.90428 10.9035 9.26325 12.0348 12.3109C15.2241 20.9162 23.3533 26.8426 25.8668 35.7654C27.2234 40.5854 27.1978 45.81 29.4041 50.4046C29.0202 50.1997 28.6567 49.8053 28.3598 49.4826C24.9453 45.7076 20.3381 40.8364 17.369 36.8513C16.0892 35.1303 15.1114 32.9533 13.847 31.1093C9.06059 24.1432 2.32889 18.4883 1.83745 9.30423C1.70436 6.86095 2.50806 4.37157 1.84769 2H11.5741Z" fill="#F6E9D9"/>
<path d="M45.3807 171.77L37.5074 171.888C37.103 171.693 34.5844 167.534 34.2261 166.832C29.9874 158.513 32.2398 149.56 30.4532 140.729C29.5676 136.36 27.4432 132.308 25.0781 128.574L30.4481 122.207C30.8218 122.11 31.1904 122.899 31.3542 123.155C34.8506 128.667 37.5535 134.45 37.9733 141.088C38.5671 150.487 37.057 157.407 41.8741 166.14C42.944 168.082 44.4593 169.798 45.3858 171.775L45.3807 171.77Z" fill="#F6E9D9"/>
<path d="M37.0481 2H45.4998C45.5664 2 46.5902 2.58905 46.6568 2.69662C46.8513 3.01419 46.9844 4.28449 47.2301 4.89915C48.1515 7.19901 50.3528 8.81762 51.8578 10.6923C58.1032 18.4268 61.4716 29.2244 58.9734 39.1051C57.5196 44.8675 54.0437 45.0007 52.5745 39.1563C50.834 32.2362 53.0147 26.4225 49.0372 19.5332C45.4793 13.3712 37.432 10.0828 37.043 2L37.0481 2Z" fill="#F6E9D9"/>
<path d="M18.5206 172C13.5601 162.637 16.3296 151.813 13.2734 142.005C14.0311 141.164 18.1827 135.868 18.8636 135.868C24.6431 147.265 19.9898 161.054 27.0849 172H18.5155H18.5206Z" fill="#F6E9D9"/>
<path d="M1.15181 172C0.0767875 167.185 0.0870257 162.222 0 157.299L5.90239 150.231C6.45526 150.138 6.19418 150.482 6.24026 150.814C7.24361 157.868 6.62419 165.249 9.25544 172.005H1.15181V172Z" fill="#F6E9D9"/>
<path d="M114.854 92.5602C114.332 90.2604 114.916 87.9349 115.54 85.7221L116.82 83.0688C121.351 86.5775 117.916 89.7738 114.86 92.5602H114.854Z" fill="#F6E9D9"/>
</g>
<defs>
<clipPath id="clip0_97_1442">
<rect width="119" height="170" fill="white" transform="translate(0 2)"/>
</clipPath>
</defs>
</svg>
