<?xml version="1.0" encoding="UTF-8"?>
<svg id="Layer_2" data-name="Layer 2" xmlns="http://www.w3.org/2000/svg" viewBox="0 0 181.92 135.16">
  <defs>
    <style>
      .cls-1 {
        stroke: #000;
        stroke-miterlimit: 10;
        stroke-width: 5px;
      }
    </style>
  </defs>
  <g id="Layer_1-2" data-name="Layer 1">
    <path class="cls-1" d="M15.38,2.8l149.68-.3c9,.17,12.75,6.2,13.49,14.49-2.2,31.95,2.79,67.47,0,98.98-.98,11.13-8.39,14.31-18.49,15.48-45.24-2.98-95.31,3.84-139.98,0-12.96-1.12-16.49-7.07-17.49-19.48-.47-5.79,1.02-10.85,1.08-15.98.3-25.06-2.62-56.97-.04-80.97.8-7.41,4.45-11.16,11.76-12.22ZM167.49,10.57c-1.8-.58-3.51-.95-5.42-1.09-46.84-3.4-97.73,2.68-145,0l-1.79.21-1.7,2.34c16.25,19.2,36.99,34.48,56.02,50.93,3.76,3.25,18.29,18.35,21.56,18.51,2.32.11,4.65-2.08,6.42-3.5,19.04-15.36,43.41-37.72,60.97-54.94,1.97-1.93,10.85-9.73,8.95-12.46ZM169.09,22.56l-49.4,45.59,50.31,48.27c1.45-.92,1.39-1.95,1.56-3.45,2.49-22.13-.56-51.79-.09-75.02.04-2.17,3.11-16.63-2.39-15.4ZM28.96,101.79c9.15-8.96,22.58-19.53,30.66-28.8,1.36-1.56,3.43-3.55,2.84-5.81L13.97,24.67l-3.33-1.15c-.48,1.83-.92,3.52-1.06,5.45-1.96,27.3,1.36,57.16.29,84.72l2.25,4.72c6.77-4.23,11.38-11.27,16.84-16.61ZM165.52,123.41l-6.47-8.01-43.51-40.42c-5.79-2.71-11.37,7.63-16.23,10.72-13.86,8.82-19.98-5.69-29.36-13.16-14.79,13.05-28.75,27.81-42.81,41.91-2.13,2.13-6.58,3.81-6.53,7.51.05,4.62,8.64,1.5,11.46,1.41,41.21-1.33,83.66,3.79,125,1.08,2.85-.19,5.55-1.32,8.45-1.05Z"/>
  </g>
</svg>