<?xml version="1.0" encoding="UTF-8"?>
<svg id="Layer_2" data-name="Layer 2" xmlns="http://www.w3.org/2000/svg" viewBox="0 0 221.42 214.69">
  <g id="Layer_1-2" data-name="Layer 1">
    <g>
      <path d="M212.06.3c13.68-2.71,8.36,13.79,8.21,21.23-.85,42.84-.58,87.08,0,129.96.09,6.58,3.35,16.46-1.51,22.38-1.9,2.32-11.17,6.78-14.42,8.56-18.59,10.21-38.31,18.59-56.72,29.21-9.1,1.57-22.33-4.9-30.92-8.57-9.83-4.2-19.8-10.34-29.63-14.33-11.77-4.78-12.46-4.62-24.01.31-15.11,6.45-33.18,19.32-47.63,24.31-8.6,2.97-11.48,1.24-12.98-7.97-.38-37.32-.52-74.62-.95-111.94-.13-11.22-2.56-23.53-.95-34.84s23.61-22.32,33.22-27.73c11.83-6.66,32.37-19.43,45.7-17.36,17.19,2.67,40.79,16.56,58.51,18.42,14.86,1.56,38.79-14.65,52.34-21.39,4.17-2.07,18.42-9.6,21.75-10.26ZM207.06,13.22c-15.81,8.92-33.87,15.66-49.58,24.46-3.11,1.74-6.6,3.34-8.36,6.63l1.17,66.24c4.32,1.8,8.25-1.07,11.1-4.01,11.27-11.62,11.09-25.61,28.96-32.99,4.4-1.82,18.14-3.73,19.47-6.51.37-15.3,3.26-33.34,1.52-48.47-.19-1.65-.47-3.16-1.5-4.5l-2.77-.83ZM139.36,104.98c2.59-6.14.11-12.54-.03-18.44-.2-8.56,1.72-37.58-1.92-43.04-1.57-2.36-5.66-3.78-8.25-4.74-15.43-5.71-33.2-8.27-48.73-14.31l-3.02.04c-.73.69-1.24,1.57-1.55,2.51-1.08,3.35-.98,24.19-.47,28.54,1.02,8.83,10.76,6.52,17.99,8.99,19.37,6.62,29.64,25.14,43.01,38.92.95.98,1.31,1.89,2.97,1.51ZM65.41,27.06c-1.74-.22-3.12.12-4.71.78-8.89,3.69-37.61,19.6-44.26,25.68-4.56,4.17-6.33,6.6-6.97,13.01-.91,9.05.91,18.31,1.03,26.92.08,6.1-1.02,42,1.89,44.06,34.44,2.05,24.92-39.17,35.33-58.72,5.03-9.44,10.47-10.03,15.76-16.21,6.79-7.94.24-25.61,1.93-35.53ZM79.11,71.22c-2.67.8-2.53,2.98-2.76,5.23-1.99,20.17.44,46.46,1.1,66.95.26,8.07-.8,17.23-.09,25.06.33,3.65.61,5.07,3.7,7.29,6.44,4.64,24.04,12.49,31.97,15.99,3.57,1.58,22.36,9.5,24.63,8.98,6.72-1.55,2.77-17.32,2.67-22.28-.42-19.77-.23-39.62-1.71-59.23-13.73-10.36-21.88-27.43-34.76-38.18-5.78-4.83-16.99-12.14-24.75-9.82ZM67.42,74.02c-5.73-.59-9.95,5.64-12.18,10.3-8.28,17.3-1.15,39.99-17.79,54.15-7.52,6.4-16.78,7.18-24.5,12.47.39,14.38-3.61,32.38-1.43,46.39.31,2,1.16,4.41,3.45,4.61,1.37.12,18.77-8.11,21.51-9.5,10.4-5.26,21.82-11.87,30.93-19.03v-99.4ZM203.1,79.26c-23.29,2.83-23.6,28.05-39.83,38.13-2.93,1.82-13.07,5.25-13.75,7.24.22,16.56-.84,33.29-.2,49.83.09,2.36.93,4.55,1.08,6.91.21,3.27-1.31,14.46,1.6,15.42,4.5,1.49,22.15-10.71,27.32-13.4,7.99-4.17,19.64-8.53,26.7-13.27,2.07-1.39,3.92-2.69,4.86-5.14.51-15.8.85-31.74.49-47.55-.05-2.36-1.01-4.55-1.08-6.91-.24-7.96,1.33-20.95.01-27.99-.25-1.34-.75-2.34-1.97-3.03-1.73-.94-3.44-.46-5.23-.25Z"/>
      <path d="M123.23,163.78c-5.79,3.65-8.86-6.64-13.44-6.86-4.97-.23-7.96,11.01-14.97,6.07-2.95-4.06,6.62-10.79,7.63-14.6.44-4.4-11.54-11.05-5.99-15.9,5.44-4.76,9.04,9.98,16.5,4.53,1.6-1.17,7.42-12.27,10.97-7.11,3.76,5.46-6.64,12.94-6.64,17.53,0,3.6,10.8,13.27,5.94,16.34Z"/>
    </g>
  </g>
</svg>