<svg width="194" height="196" viewBox="0 0 194 196" fill="none" xmlns="http://www.w3.org/2000/svg">
<path d="M72.8737 1.76635C77.2737 1.74635 92.4337 -1.33365 95.2337 0.686348C98.5537 3.08635 93.9337 19.9463 103.394 21.7363C105.674 22.1663 119.214 22.0763 120.874 21.2663L129.504 6.68635C131.054 6.36635 144.754 12.0263 145.884 13.2563C148.654 16.2663 142.674 25.4363 142.824 30.3163C142.974 35.1963 153.454 40.8063 156.584 44.6163C160.714 45.1263 169.964 36.6064 172.874 38.1964C173.864 38.7364 184.324 55.2363 185.094 57.0263C185.594 58.2063 186.214 59.3263 185.814 60.6663L171.844 69.4463C172.374 73.6363 173.014 85.4163 176.574 87.5363C180.694 89.9863 193.784 90.4763 193.974 96.2163C194.044 98.4263 192.104 112.426 190.934 113.316C187.624 114.146 176.364 112.266 174.334 113.166C169.944 115.116 168.674 131.176 168.424 135.766L180.754 146.186C178.434 149.566 172.624 163.446 169.184 164.516C162.534 166.586 158.064 159.316 151.424 159.746C149.674 159.866 141.084 164.816 139.814 166.136C134.494 171.686 142.314 180.976 140.774 186.016C140.024 188.476 122.164 193.666 118.534 192.526C115.654 191.556 113.884 182.076 112.194 180.616C108.014 177.026 99.0837 179.216 94.0537 179.856C93.0537 180.516 90.7937 191.776 88.9537 194.006C85.5537 198.116 70.9737 192.676 65.8837 193.686L68.3737 175.556C67.7337 172.626 59.7737 166.936 56.9237 166.156C45.9437 163.156 40.9537 178.276 35.9437 176.216C33.7237 175.306 19.8537 161.896 19.8637 160.186L31.4337 144.716C32.3537 142.616 21.1537 130.426 19.1737 129.856C15.8037 128.896 9.6837 131.986 6.3837 131.726C5.8237 131.686 5.3137 131.636 4.8637 131.266C3.6537 126.496 -1.4763 114.916 0.413699 110.676C3.7937 107.556 17.6637 104.536 18.7237 101.006C19.0237 100.006 17.8337 85.4163 17.4037 84.7163C14.4237 81.7763 2.0737 79.4663 1.0437 76.0163C0.373699 73.7763 6.4137 56.1064 7.8737 55.1964C11.3137 53.0563 21.1837 60.3363 25.3337 59.7663C28.6737 59.3063 32.9037 50.7063 36.4237 48.7563C35.5537 40.5863 28.8237 36.8163 25.8737 30.1563C25.6037 24.5963 38.6237 16.2363 44.0037 15.2163C47.1837 15.6163 50.3837 28.8263 57.4237 28.6363C59.4237 28.5763 72.8937 21.9863 72.8937 20.2563V1.76635H72.8737ZM138.294 62.3163C101.604 23.9763 35.4437 53.0063 45.1337 107.956C49.6737 133.726 74.2037 149.856 99.3737 150.276C146.514 151.056 170.854 96.3563 138.294 62.3264V62.3163Z" fill="#F6E9D9"/>
<path d="M90.6337 60.9963C107.994 58.4863 121.794 64.0464 131.284 78.8164C155.944 117.176 106.064 149.906 74.9537 126.116C51.4637 108.156 60.9637 65.2763 90.6237 60.9963H90.6337Z" fill="#F6E9D9"/>
</svg>
