<svg width="164" height="168" viewBox="0 0 164 168" fill="none" xmlns="http://www.w3.org/2000/svg">
<path d="M106.59 5.41802L89.6196 61.358L139.13 22.578L153.41 42.718L152.49 44.708L103.61 77.348L162.61 76.358C161.64 85.068 164.6 93.838 162.53 102.278L99.6096 96.368L155.47 122.058C156.24 124.858 147.77 139.168 145.15 139.288L106.61 120.348L131.63 156.888L131.47 158.198L118.1 167.358C115.91 167.378 107.12 154.898 105.18 152.248C100.25 145.508 95.8996 138.228 90.9396 131.468C67.9296 100.138 34.2096 73.388 4.54959 47.938C-7.56041 37.548 7.66959 32.738 12.8896 23.698L15.9096 22.628L55.5896 62.368C54.8596 55.028 34.6896 10.628 37.0396 7.35802C38.9196 4.73802 43.8796 5.45802 45.5896 4.89802C47.7496 4.18802 58.5296 -0.561981 59.5896 0.388019L71.0896 51.368L84.1496 1.41802C86.9696 -3.09198 102.27 4.51802 106.59 5.41802Z" fill="#F6E9D9"/>
</svg>
