<svg width="347" height="206" viewBox="0 0 347 206" fill="none" xmlns="http://www.w3.org/2000/svg">
<path d="M308.661 30.65C315.111 50.86 315.801 69.21 306.461 88.94L346.451 109.55L346.241 112.07L333.571 120.55L300.771 98.43C299.621 99.92 299.371 101.74 298.291 103.32C290.651 114.49 265.741 138.94 253.261 143.8C251.911 144.33 250.641 144.86 249.151 144.88C248.751 143.14 248.921 141.28 249.831 139.72C255.001 130.83 264.441 119.13 270.891 110.62C274.771 105.5 279.681 101.03 283.121 95.51C279.521 92.85 275.361 98.45 272.921 101.08C263.841 110.86 256.061 120.02 245.891 129.01C241.461 132.93 228.291 144.55 223.831 146.59C223.091 146.93 221.401 146.8 220.771 146.51C218.691 145.56 220.301 145.03 220.821 143.7C225.061 132.79 241.901 117.47 249.691 107.59C253.281 100.22 260.421 94.51 264.321 87.39C264.991 86.16 265.581 84.75 263.581 85.03C249.811 100.18 233.311 112.16 217.761 125.28C213.981 128.47 209.711 133.88 205.681 137.1C201.901 140.12 197.271 142.06 193.761 145.43L191.351 143.7C193.691 141.75 194.251 138.27 195.671 136.2C202.311 126.51 213.331 111.78 220.981 102.81C227.301 95.41 236.771 90.01 243.141 82.52C237.631 82.22 232.211 85.27 226.811 83.24L186.131 135.55C182.621 137.73 170.391 153.4 166.641 151.4C164.401 150.21 166.141 146.68 167.051 145.05C170.991 137.97 176.681 131.07 180.741 124.26C188.581 111.12 194.961 97.3 203.401 84.53C200.721 84.86 194.681 84.88 192.511 85.83C188.771 87.46 186.101 98.3 184.031 102.27C172.121 125.08 153.531 144.9 134.061 161.35C132.141 157.45 135.201 151.56 136.931 147.67C144.431 130.78 154.081 113.74 161.921 96.4C162.401 95.33 167.321 91.34 163.561 92.68C161.821 93.3 155.761 96.16 154.391 97.11C150.031 100.13 145.291 115.47 142.201 121.08C137.231 130.12 127.041 145 120.241 153.16C118.811 154.88 108.271 166.41 107.381 166.69C106.271 167.04 105.171 167.04 105.031 165.61L128.631 106.78C129.101 104.74 125.891 105.84 125.381 106.02C125.111 106.11 120.551 108.63 120.341 108.83C115.251 113.54 113.101 127.08 110.101 134.04C102.631 151.38 92.271 167.34 79.211 180.79C76.531 181.37 78.751 173.43 78.961 172.61C81.171 163.85 84.991 152.61 88.031 143.99C90.171 137.91 93.081 131.94 95.521 125.98C88.741 124.4 73.881 138.63 72.161 143.65C71.311 146.13 70.821 153.43 70.061 156.89C69.801 158.06 69.411 158.99 69.021 160.74C67.931 165.71 60.871 200.92 58.151 201.3C56.721 200.62 56.371 199.82 55.841 198.45C54.511 194.99 53.271 180.86 53.281 176.68C53.311 168.61 54.731 160.48 57.981 153.05C46.801 158.52 42.081 171.98 35.411 181.67C30.091 189.39 23.921 196.43 18.951 204.39C16.801 206.03 12.451 205.59 11.401 203C10.911 201.8 20.441 182.17 22.071 179.49C28.961 168.17 39.331 160.41 47.931 150.7L6.20101 164.88C0.371015 164.19 -2.15899 162.86 2.14101 157.61C6.49101 152.3 27.531 140.02 34.521 137.1C44.701 132.85 53.521 132.5 63.711 130.72C70.621 129.51 77.071 122.34 81.971 117.39L26.821 115.04C24.651 114.93 22.341 110.93 23.771 109.31C41.481 101.77 60.631 97.58 79.821 101.64L96.141 109.78L114.491 101.5C113.121 100.13 111.281 100.9 109.641 100.17C95.621 93.97 72.481 85.37 60.341 78.09C58.811 77.17 53.281 74.05 55.761 71.85C67.381 70.38 79.821 67.87 91.371 70.79C100.211 73.02 121.891 84.05 128.081 90.4C129.231 91.58 129.021 92.85 129.761 94.06L143.061 87.68C127.701 71.06 106.961 61.39 89.171 47.95C111.761 45.27 135.001 54.35 151.751 69.5C159.001 76.06 159.641 83.46 171.401 79.23C171.981 78.44 167.031 70.67 166.011 69.37C159.801 61.36 150.911 49.35 144.051 42.26C140.231 38.31 132.401 33.22 129.431 29.39C128.671 28.41 128.811 27.09 128.611 25.96C143.451 25.27 159.361 36.37 170.161 45.83C179.801 54.27 185.951 65.27 192.881 75.79L199.911 73.99C191.331 53.36 178.481 34.7 167.001 15.56C166.151 12.23 170.511 9.96996 173.371 10.23C177.001 14.89 182.171 17.66 186.471 21.75C196.251 31.05 205.901 42.79 213.521 53.94C217.271 59.43 219.931 65.57 223.811 70.99L234.371 72.44C234.491 65.37 229.181 60.12 226.331 54.05C220.861 42.4 214.621 29.16 209.781 17.33C209.371 16.32 206.961 10.48 207.981 10.12C209.171 11 210.761 10.49 212.061 10.96C221.281 14.29 242.041 40.15 248.231 49.14C251.791 54.31 257.961 69.16 261.691 71.39C263.011 72.18 263.831 72.73 265.421 72.15C264.371 68.45 264.151 63.67 263.331 60.13C260.351 47.15 253.641 33.5 251.001 20.8C250.151 16.7 249.431 12.38 252.131 8.81996C255.021 10.4 256.781 12.83 258.821 15.26C269.101 27.48 283.851 51.19 288.581 66.33C289.621 69.65 289.521 73.12 290.771 76.35L290.361 47.98C294.471 37.97 288.121 12.67 291.431 4.35996C292.081 2.71996 293.361 1.36996 294.371 -0.0400391C295.061 1.71996 297.131 1.98996 298.031 3.28996C301.651 8.56996 306.491 23.91 308.621 30.61L308.661 30.65Z" fill="#F6E9D9"/>
</svg>
