<?xml version="1.0" encoding="UTF-8"?>
<svg id="Layer_2" data-name="Layer 2" xmlns="http://www.w3.org/2000/svg" viewBox="0 0 150.41 160.36">
  <defs>
    <style>
      .cls-1 {
        stroke: #000;
        stroke-miterlimit: 10;
        stroke-width: 5px;
      }
    </style>
  </defs>
  <g id="Layer_1-2" data-name="Layer 1">
    <path class="cls-1" d="M31.5,2.67c10.65-1.34,15.08,5.62,19.74,13.72,3.56,6.18,10.28,20.05,8.83,26.77-2.54,11.69-18.3,15.96-9.77,31.13,4.1,7.29,20.02,27.55,26.5,32.45,19.69,14.89,21.74-7.46,39.41-5.43,6.42.74,28.36,15.5,30.7,21.26,5.29,13.02-11.42,25.23-21.56,29.89-20.01,9.19-38.57,6.37-56.36-5.94C39.16,125.85-.72,72.61,2.71,34.84,3.8,22.8,19.14,4.22,31.5,2.67ZM139.36,123.58c-1.3-1.62-9.49-7.26-11.78-8.69-3.22-2.03-9.08-5.88-12.67-6.38-10.78-1.52-17.38,14.38-31.93,10.02-12-3.6-30.71-27.79-37.48-38.46s-6.94-16.36-.4-26.83c2.45-3.93,7.24-7.77,7.67-12.36.5-5.38-8.79-25.51-13.08-28.93C28.62,3.1,10.94,24.88,9.72,34.86c-4.07,33.21,29.18,77.21,52.98,97.94,17.45,15.21,35.71,23.24,58.66,13.65,6.87-2.87,25.44-13.58,18.01-22.87Z"/>
  </g>
</svg>