<svg width="62" height="74" viewBox="0 0 62 74" fill="none" xmlns="http://www.w3.org/2000/svg">
<mask id="path-1-outside-1_121_16" maskUnits="userSpaceOnUse" x="-1" y="-0.00195312" width="63" height="75" fill="black">
<rect fill="white" x="-1" y="-0.00195312" width="63" height="75"/>
<path d="M42.5767 27.4334C42.3519 27.3853 42.2884 27.5479 42.1703 27.6829C41.3256 28.6557 40.4901 30.2305 39.6908 31.32C38.5237 32.9131 37.2454 34.6138 36.0102 36.1497C34.5616 37.951 31.1671 42.2451 29.2484 43.1675C27.3298 44.09 24.7141 43.3827 22.6456 43.4307C21.9145 50.4509 14.7417 54.6831 8.17294 52.3004C-0.0533638 49.3156 -1.6019 37.8526 5.60946 32.8193C9.34456 30.2122 13.452 30.068 17.4551 32.2173C19.0853 30.187 20.9586 27.9004 19.7211 25.1491C18.7924 23.0822 17.8615 23.8833 16.1972 23.4072C15.1799 23.1165 14.61 22.5214 14.7145 21.4021C14.9075 19.3489 18.4042 20.3812 19.5962 20.4636C20.761 20.5437 23.9444 20.1683 24.7345 20.8184C25.2908 21.2739 25.0978 22.2101 24.4144 22.4252C23.2632 22.7869 22.2437 22.162 21.1561 22.1391C19.1875 22.0956 20.6793 23.3294 21.1379 24.2037C21.3218 24.5562 21.8305 26.1539 22.0053 26.2157C22.2369 26.2363 22.4708 26.2798 22.7024 26.2889C26.1218 26.4148 30.4473 26.0074 33.9213 25.7533C36.3826 25.5748 38.8371 25.1124 41.3097 25.1605C42.2021 23.6132 41.0622 19.7243 39.1777 19.4977C38.1037 19.3672 36.3712 19.4725 35.2314 19.4977C34.5094 19.5114 32.954 20.0585 32.7951 18.9506C32.6974 18.2708 32.9041 17.9252 33.5762 17.8291C34.6933 17.6711 39.1504 17.6528 40.2426 17.8245C40.5309 17.8703 41.2825 18.2731 41.5027 18.4791C43.0104 19.8914 43.8028 25.0758 44.3273 27.1816C44.6952 28.658 45.1243 30.1435 45.558 31.6016C45.6738 31.684 47.0657 31.1712 47.3517 31.1071C53.2938 29.807 58.8568 32.9177 60.1851 38.9856C62.0901 47.695 56.2569 54.1269 47.4426 52.6689C38.0015 51.1078 35.9421 37.3857 43.8732 32.5309L42.5745 27.438L42.5767 27.4334ZM40.4288 26.9527C40.0814 26.9573 39.768 26.8154 39.4138 26.8223C35.9966 26.8795 32.6657 27.5593 29.2666 27.7928C27.1073 27.9416 24.8935 27.7539 22.7637 28.1567C22.5162 28.436 24.6959 33.8722 25.0115 34.6115C25.7313 36.3007 26.7667 38.7957 27.7135 40.3086C28.2539 41.1716 28.7058 41.3043 29.6072 40.7664C30.3043 40.3498 31.5644 38.9284 32.1343 38.2623C34.4253 35.5751 37.0252 32.0548 39.0937 29.157C39.2912 28.88 40.5922 27.1244 40.4288 26.955V26.9527ZM21.0903 29.7201L20.845 29.7956L18.9377 33.3823C20.6452 34.6802 22.0484 36.9851 22.4708 39.0978C22.6388 39.9424 22.6206 40.7962 22.8204 41.6339C22.9726 41.8537 25.0229 41.7324 25.4566 41.7438C25.9606 41.7575 26.4057 42.0185 26.9438 41.7484L24.4552 37.8229L21.0948 29.7223L21.0903 29.7201ZM16.4378 33.57C11.9534 30.9904 6.55175 32.698 4.00416 37.095C-0.223657 44.3944 6.63122 53.3762 14.7417 50.8011C17.8388 49.8192 20.7156 46.6673 20.8564 43.3094L12.21 43.0622C10.7364 42.6113 11.6356 40.7962 12.1237 39.8623C13.2817 37.6375 15.2503 35.7972 16.4401 33.57H16.4378ZM44.4863 34.2888C43.0399 34.893 41.9069 36.7036 41.3279 38.141C39.4592 42.7738 41.4392 48.7136 46.2165 50.531C54.3678 53.6325 61.3113 46.0264 58.1529 38.0197C56.3614 33.4762 52.3288 31.8579 47.6878 32.7598C47.2995 32.8353 45.9985 33.0871 46.087 33.5677C46.1756 34.0484 46.4617 34.8061 46.6342 35.3119C47.0134 36.4289 47.7809 38.5645 48.5438 39.4022C49.0388 39.9447 51.0641 41.2036 50.0446 42.1123C48.8844 43.1446 47.211 40.6039 46.7364 39.7822C45.7442 38.0678 45.1379 36.1519 44.4885 34.2888H44.4863ZM20.9745 41.6271C21.0085 39.0108 19.905 36.2046 17.698 34.7626L13.2159 41.3272L13.3907 41.5058L20.9722 41.6271H20.9745Z"/>
<path d="M52.1257 10.6454C52.0531 9.79165 51.7624 8.95619 51.9168 8.08869C52.0826 7.1548 53.2224 6.95795 53.4313 7.94906C53.6765 9.10955 53.9308 12.092 53.8014 13.2342C53.7015 14.0994 53.1702 13.93 52.4413 13.8774C51.2516 13.7904 48.8902 13.3052 47.6845 13.0168C47.0147 12.8565 46.5038 12.3713 47.0033 11.6754C47.4574 11.0414 49.9483 11.9318 50.6953 11.8471C50.7225 11.7281 50.6862 11.6915 50.6385 11.6045C50.4773 11.3161 48.7267 9.636 48.3657 9.32471C40.623 2.67536 27.8487 0.86482 18.5462 5.01007C11.3734 8.20313 6.46216 14.3329 3.79196 21.6575C2.62034 22.4082 2.50227 21.6208 2.59536 20.5702C2.74976 18.8123 4.72062 15.395 5.6947 13.8316C13.0695 1.98868 28.0871 -1.70336 40.85 2.94546C45.2663 4.55458 48.8902 7.27154 52.1257 10.6454Z"/>
<path d="M10.949 65.6706C10.7492 66.561 11.9072 68.8408 10.8264 69.3375C10.0612 69.69 9.8364 69.0514 9.66838 68.4631C9.30736 67.1974 8.90773 65.206 8.71019 63.8944C8.66478 63.5946 8.51947 62.7866 8.70565 62.5737C8.8873 62.4387 9.11209 62.4341 9.32779 62.4181C10.6084 62.3219 12.5815 62.3998 13.8689 62.544C14.3707 62.6012 15.0451 62.9171 14.9566 63.5099C14.7794 64.6727 12.5815 63.9471 11.7823 64.1073L11.839 64.3499C14.4298 66.117 17.1068 67.7971 20.0222 68.9759C30.342 73.1463 41.1431 71.3586 50.1346 65.048C51.5128 64.0798 53.52 61.3537 54.5918 60.8799C55.6839 60.3969 55.8451 61.5918 55.4023 62.299C54.9051 63.0956 53.3611 64.501 52.605 65.1327C43.5795 72.6427 32.2152 74.998 21.0008 71.2373C17.352 70.0127 14.0392 67.9344 10.949 65.6729V65.6706Z"/>
</mask>
<path d="M42.5767 27.4334C42.3519 27.3853 42.2884 27.5479 42.1703 27.6829C41.3256 28.6557 40.4901 30.2305 39.6908 31.32C38.5237 32.9131 37.2454 34.6138 36.0102 36.1497C34.5616 37.951 31.1671 42.2451 29.2484 43.1675C27.3298 44.09 24.7141 43.3827 22.6456 43.4307C21.9145 50.4509 14.7417 54.6831 8.17294 52.3004C-0.0533638 49.3156 -1.6019 37.8526 5.60946 32.8193C9.34456 30.2122 13.452 30.068 17.4551 32.2173C19.0853 30.187 20.9586 27.9004 19.7211 25.1491C18.7924 23.0822 17.8615 23.8833 16.1972 23.4072C15.1799 23.1165 14.61 22.5214 14.7145 21.4021C14.9075 19.3489 18.4042 20.3812 19.5962 20.4636C20.761 20.5437 23.9444 20.1683 24.7345 20.8184C25.2908 21.2739 25.0978 22.2101 24.4144 22.4252C23.2632 22.7869 22.2437 22.162 21.1561 22.1391C19.1875 22.0956 20.6793 23.3294 21.1379 24.2037C21.3218 24.5562 21.8305 26.1539 22.0053 26.2157C22.2369 26.2363 22.4708 26.2798 22.7024 26.2889C26.1218 26.4148 30.4473 26.0074 33.9213 25.7533C36.3826 25.5748 38.8371 25.1124 41.3097 25.1605C42.2021 23.6132 41.0622 19.7243 39.1777 19.4977C38.1037 19.3672 36.3712 19.4725 35.2314 19.4977C34.5094 19.5114 32.954 20.0585 32.7951 18.9506C32.6974 18.2708 32.9041 17.9252 33.5762 17.8291C34.6933 17.6711 39.1504 17.6528 40.2426 17.8245C40.5309 17.8703 41.2825 18.2731 41.5027 18.4791C43.0104 19.8914 43.8028 25.0758 44.3273 27.1816C44.6952 28.658 45.1243 30.1435 45.558 31.6016C45.6738 31.684 47.0657 31.1712 47.3517 31.1071C53.2938 29.807 58.8568 32.9177 60.1851 38.9856C62.0901 47.695 56.2569 54.1269 47.4426 52.6689C38.0015 51.1078 35.9421 37.3857 43.8732 32.5309L42.5745 27.438L42.5767 27.4334ZM40.4288 26.9527C40.0814 26.9573 39.768 26.8154 39.4138 26.8223C35.9966 26.8795 32.6657 27.5593 29.2666 27.7928C27.1073 27.9416 24.8935 27.7539 22.7637 28.1567C22.5162 28.436 24.6959 33.8722 25.0115 34.6115C25.7313 36.3007 26.7667 38.7957 27.7135 40.3086C28.2539 41.1716 28.7058 41.3043 29.6072 40.7664C30.3043 40.3498 31.5644 38.9284 32.1343 38.2623C34.4253 35.5751 37.0252 32.0548 39.0937 29.157C39.2912 28.88 40.5922 27.1244 40.4288 26.955V26.9527ZM21.0903 29.7201L20.845 29.7956L18.9377 33.3823C20.6452 34.6802 22.0484 36.9851 22.4708 39.0978C22.6388 39.9424 22.6206 40.7962 22.8204 41.6339C22.9726 41.8537 25.0229 41.7324 25.4566 41.7438C25.9606 41.7575 26.4057 42.0185 26.9438 41.7484L24.4552 37.8229L21.0948 29.7223L21.0903 29.7201ZM16.4378 33.57C11.9534 30.9904 6.55175 32.698 4.00416 37.095C-0.223657 44.3944 6.63122 53.3762 14.7417 50.8011C17.8388 49.8192 20.7156 46.6673 20.8564 43.3094L12.21 43.0622C10.7364 42.6113 11.6356 40.7962 12.1237 39.8623C13.2817 37.6375 15.2503 35.7972 16.4401 33.57H16.4378ZM44.4863 34.2888C43.0399 34.893 41.9069 36.7036 41.3279 38.141C39.4592 42.7738 41.4392 48.7136 46.2165 50.531C54.3678 53.6325 61.3113 46.0264 58.1529 38.0197C56.3614 33.4762 52.3288 31.8579 47.6878 32.7598C47.2995 32.8353 45.9985 33.0871 46.087 33.5677C46.1756 34.0484 46.4617 34.8061 46.6342 35.3119C47.0134 36.4289 47.7809 38.5645 48.5438 39.4022C49.0388 39.9447 51.0641 41.2036 50.0446 42.1123C48.8844 43.1446 47.211 40.6039 46.7364 39.7822C45.7442 38.0678 45.1379 36.1519 44.4885 34.2888H44.4863ZM20.9745 41.6271C21.0085 39.0108 19.905 36.2046 17.698 34.7626L13.2159 41.3272L13.3907 41.5058L20.9722 41.6271H20.9745Z" fill="#F6E9D9"/>
<path d="M52.1257 10.6454C52.0531 9.79165 51.7624 8.95619 51.9168 8.08869C52.0826 7.1548 53.2224 6.95795 53.4313 7.94906C53.6765 9.10955 53.9308 12.092 53.8014 13.2342C53.7015 14.0994 53.1702 13.93 52.4413 13.8774C51.2516 13.7904 48.8902 13.3052 47.6845 13.0168C47.0147 12.8565 46.5038 12.3713 47.0033 11.6754C47.4574 11.0414 49.9483 11.9318 50.6953 11.8471C50.7225 11.7281 50.6862 11.6915 50.6385 11.6045C50.4773 11.3161 48.7267 9.636 48.3657 9.32471C40.623 2.67536 27.8487 0.86482 18.5462 5.01007C11.3734 8.20313 6.46216 14.3329 3.79196 21.6575C2.62034 22.4082 2.50227 21.6208 2.59536 20.5702C2.74976 18.8123 4.72062 15.395 5.6947 13.8316C13.0695 1.98868 28.0871 -1.70336 40.85 2.94546C45.2663 4.55458 48.8902 7.27154 52.1257 10.6454Z" fill="#F6E9D9"/>
<path d="M10.949 65.6706C10.7492 66.561 11.9072 68.8408 10.8264 69.3375C10.0612 69.69 9.8364 69.0514 9.66838 68.4631C9.30736 67.1974 8.90773 65.206 8.71019 63.8944C8.66478 63.5946 8.51947 62.7866 8.70565 62.5737C8.8873 62.4387 9.11209 62.4341 9.32779 62.4181C10.6084 62.3219 12.5815 62.3998 13.8689 62.544C14.3707 62.6012 15.0451 62.9171 14.9566 63.5099C14.7794 64.6727 12.5815 63.9471 11.7823 64.1073L11.839 64.3499C14.4298 66.117 17.1068 67.7971 20.0222 68.9759C30.342 73.1463 41.1431 71.3586 50.1346 65.048C51.5128 64.0798 53.52 61.3537 54.5918 60.8799C55.6839 60.3969 55.8451 61.5918 55.4023 62.299C54.9051 63.0956 53.3611 64.501 52.605 65.1327C43.5795 72.6427 32.2152 74.998 21.0008 71.2373C17.352 70.0127 14.0392 67.9344 10.949 65.6729V65.6706Z" fill="#F6E9D9"/>
<path d="M42.5767 27.4334C42.3519 27.3853 42.2884 27.5479 42.1703 27.6829C41.3256 28.6557 40.4901 30.2305 39.6908 31.32C38.5237 32.9131 37.2454 34.6138 36.0102 36.1497C34.5616 37.951 31.1671 42.2451 29.2484 43.1675C27.3298 44.09 24.7141 43.3827 22.6456 43.4307C21.9145 50.4509 14.7417 54.6831 8.17294 52.3004C-0.0533638 49.3156 -1.6019 37.8526 5.60946 32.8193C9.34456 30.2122 13.452 30.068 17.4551 32.2173C19.0853 30.187 20.9586 27.9004 19.7211 25.1491C18.7924 23.0822 17.8615 23.8833 16.1972 23.4072C15.1799 23.1165 14.61 22.5214 14.7145 21.4021C14.9075 19.3489 18.4042 20.3812 19.5962 20.4636C20.761 20.5437 23.9444 20.1683 24.7345 20.8184C25.2908 21.2739 25.0978 22.2101 24.4144 22.4252C23.2632 22.7869 22.2437 22.162 21.1561 22.1391C19.1875 22.0956 20.6793 23.3294 21.1379 24.2037C21.3218 24.5562 21.8305 26.1539 22.0053 26.2157C22.2369 26.2363 22.4708 26.2798 22.7024 26.2889C26.1218 26.4148 30.4473 26.0074 33.9213 25.7533C36.3826 25.5748 38.8371 25.1124 41.3097 25.1605C42.2021 23.6132 41.0622 19.7243 39.1777 19.4977C38.1037 19.3672 36.3712 19.4725 35.2314 19.4977C34.5094 19.5114 32.954 20.0585 32.7951 18.9506C32.6974 18.2708 32.9041 17.9252 33.5762 17.8291C34.6933 17.6711 39.1504 17.6528 40.2426 17.8245C40.5309 17.8703 41.2825 18.2731 41.5027 18.4791C43.0104 19.8914 43.8028 25.0758 44.3273 27.1816C44.6952 28.658 45.1243 30.1435 45.558 31.6016C45.6738 31.684 47.0657 31.1712 47.3517 31.1071C53.2938 29.807 58.8568 32.9177 60.1851 38.9856C62.0901 47.695 56.2569 54.1269 47.4426 52.6689C38.0015 51.1078 35.9421 37.3857 43.8732 32.5309L42.5745 27.438L42.5767 27.4334ZM40.4288 26.9527C40.0814 26.9573 39.768 26.8154 39.4138 26.8223C35.9966 26.8795 32.6657 27.5593 29.2666 27.7928C27.1073 27.9416 24.8935 27.7539 22.7637 28.1567C22.5162 28.436 24.6959 33.8722 25.0115 34.6115C25.7313 36.3007 26.7667 38.7957 27.7135 40.3086C28.2539 41.1716 28.7058 41.3043 29.6072 40.7664C30.3043 40.3498 31.5644 38.9284 32.1343 38.2623C34.4253 35.5751 37.0252 32.0548 39.0937 29.157C39.2912 28.88 40.5922 27.1244 40.4288 26.955V26.9527ZM21.0903 29.7201L20.845 29.7956L18.9377 33.3823C20.6452 34.6802 22.0484 36.9851 22.4708 39.0978C22.6388 39.9424 22.6206 40.7962 22.8204 41.6339C22.9726 41.8537 25.0229 41.7324 25.4566 41.7438C25.9606 41.7575 26.4057 42.0185 26.9438 41.7484L24.4552 37.8229L21.0948 29.7223L21.0903 29.7201ZM16.4378 33.57C11.9534 30.9904 6.55175 32.698 4.00416 37.095C-0.223657 44.3944 6.63122 53.3762 14.7417 50.8011C17.8388 49.8192 20.7156 46.6673 20.8564 43.3094L12.21 43.0622C10.7364 42.6113 11.6356 40.7962 12.1237 39.8623C13.2817 37.6375 15.2503 35.7972 16.4401 33.57H16.4378ZM44.4863 34.2888C43.0399 34.893 41.9069 36.7036 41.3279 38.141C39.4592 42.7738 41.4392 48.7136 46.2165 50.531C54.3678 53.6325 61.3113 46.0264 58.1529 38.0197C56.3614 33.4762 52.3288 31.8579 47.6878 32.7598C47.2995 32.8353 45.9985 33.0871 46.087 33.5677C46.1756 34.0484 46.4617 34.8061 46.6342 35.3119C47.0134 36.4289 47.7809 38.5645 48.5438 39.4022C49.0388 39.9447 51.0641 41.2036 50.0446 42.1123C48.8844 43.1446 47.211 40.6039 46.7364 39.7822C45.7442 38.0678 45.1379 36.1519 44.4885 34.2888H44.4863ZM20.9745 41.6271C21.0085 39.0108 19.905 36.2046 17.698 34.7626L13.2159 41.3272L13.3907 41.5058L20.9722 41.6271H20.9745Z" stroke="#F6E9D9" stroke-width="2" mask="url(#path-1-outside-1_121_16)"/>
<path d="M52.1257 10.6454C52.0531 9.79165 51.7624 8.95619 51.9168 8.08869C52.0826 7.1548 53.2224 6.95795 53.4313 7.94906C53.6765 9.10955 53.9308 12.092 53.8014 13.2342C53.7015 14.0994 53.1702 13.93 52.4413 13.8774C51.2516 13.7904 48.8902 13.3052 47.6845 13.0168C47.0147 12.8565 46.5038 12.3713 47.0033 11.6754C47.4574 11.0414 49.9483 11.9318 50.6953 11.8471C50.7225 11.7281 50.6862 11.6915 50.6385 11.6045C50.4773 11.3161 48.7267 9.636 48.3657 9.32471C40.623 2.67536 27.8487 0.86482 18.5462 5.01007C11.3734 8.20313 6.46216 14.3329 3.79196 21.6575C2.62034 22.4082 2.50227 21.6208 2.59536 20.5702C2.74976 18.8123 4.72062 15.395 5.6947 13.8316C13.0695 1.98868 28.0871 -1.70336 40.85 2.94546C45.2663 4.55458 48.8902 7.27154 52.1257 10.6454Z" stroke="#F6E9D9" stroke-width="2" mask="url(#path-1-outside-1_121_16)"/>
<path d="M10.949 65.6706C10.7492 66.561 11.9072 68.8408 10.8264 69.3375C10.0612 69.69 9.8364 69.0514 9.66838 68.4631C9.30736 67.1974 8.90773 65.206 8.71019 63.8944C8.66478 63.5946 8.51947 62.7866 8.70565 62.5737C8.8873 62.4387 9.11209 62.4341 9.32779 62.4181C10.6084 62.3219 12.5815 62.3998 13.8689 62.544C14.3707 62.6012 15.0451 62.9171 14.9566 63.5099C14.7794 64.6727 12.5815 63.9471 11.7823 64.1073L11.839 64.3499C14.4298 66.117 17.1068 67.7971 20.0222 68.9759C30.342 73.1463 41.1431 71.3586 50.1346 65.048C51.5128 64.0798 53.52 61.3537 54.5918 60.8799C55.6839 60.3969 55.8451 61.5918 55.4023 62.299C54.9051 63.0956 53.3611 64.501 52.605 65.1327C43.5795 72.6427 32.2152 74.998 21.0008 71.2373C17.352 70.0127 14.0392 67.9344 10.949 65.6729V65.6706Z" stroke="#F6E9D9" stroke-width="2" mask="url(#path-1-outside-1_121_16)"/>
</svg>
