<?xml version="1.0" encoding="UTF-8"?>
<svg id="Layer_2" data-name="Layer 2" xmlns="http://www.w3.org/2000/svg" viewBox="0 0 264.25 266.5">
  <defs>
    <style>
      .cls-1 {
        stroke: #000;
        stroke-miterlimit: 10;
        stroke-width: 2px;
      }
    </style>
  </defs>
  <g id="Layer_1-2" data-name="Layer 1">
    <g>
      <path class="cls-1" d="M184.11,93.65c-.99-.21-1.27.5-1.79,1.09-3.72,4.25-7.4,11.13-10.92,15.89-5.14,6.96-10.77,14.39-16.21,21.1-6.38,7.87-21.33,26.63-29.78,30.66s-19.97.94-29.08,1.15c-3.22,30.67-34.81,49.16-63.74,38.75-36.23-13.04-43.05-63.12-11.29-85.11,16.45-11.39,34.54-12.02,52.17-2.63,7.18-8.87,15.43-18.86,9.98-30.88-4.09-9.03-8.19-5.53-15.52-7.61-4.48-1.27-6.99-3.87-6.53-8.76.85-8.97,16.25-4.46,21.5-4.1,5.13.35,19.15-1.29,22.63,1.55,2.45,1.99,1.6,6.08-1.41,7.02-5.07,1.58-9.56-1.15-14.35-1.25-8.67-.19-2.1,5.2-.08,9.02.81,1.54,3.05,8.52,3.82,8.79,1.02.09,2.05.28,3.07.32,15.06.55,34.11-1.23,49.41-2.34,10.84-.78,21.65-2.8,32.54-2.59,3.93-6.76-1.09-23.75-9.39-24.74-4.73-.57-12.36-.11-17.38,0-3.18.06-10.03,2.45-10.73-2.39-.43-2.97.48-4.48,3.44-4.9,4.92-.69,24.55-.77,29.36-.02,1.27.2,4.58,1.96,5.55,2.86,6.64,6.17,10.13,28.82,12.44,38.02,1.62,6.45,3.51,12.94,5.42,19.31.51.36,6.64-1.88,7.9-2.16,26.17-5.68,50.67,7.91,56.52,34.42,8.39,38.05-17.3,66.15-56.12,59.78-41.58-6.82-50.65-66.77-15.72-87.98l-5.72-22.25ZM174.65,91.55c-1.53.02-2.91-.6-4.47-.57-15.05.25-29.72,3.22-44.69,4.24-9.51.65-19.26-.17-28.64,1.59-1.09,1.22,8.51,24.97,9.9,28.2,3.17,7.38,7.73,18.28,11.9,24.89,2.38,3.77,4.37,4.35,8.34,2,3.07-1.82,8.62-8.03,11.13-10.94,10.09-11.74,21.54-27.12,30.65-39.78.87-1.21,6.6-8.88,5.88-9.62ZM89.48,103.64l-1.08.33-8.4,15.67c7.52,5.67,13.7,15.74,15.56,24.97.74,3.69.66,7.42,1.54,11.08.67.96,9.7.43,11.61.48,2.22.06,4.18,1.2,6.55.02l-10.96-17.15-14.8-35.39ZM68.99,120.46c-19.75-11.27-43.54-3.81-54.76,15.4-18.62,31.89,11.57,71.13,47.29,59.88,13.64-4.29,26.31-18.06,26.93-32.73l-38.08-1.08c-6.49-1.97-2.53-9.9-.38-13.98,5.1-9.72,13.77-17.76,19.01-27.49ZM192.52,123.6c-6.37,2.64-11.36,10.55-13.91,16.83-8.23,20.24.49,46.19,21.53,54.13,35.9,13.55,66.48-19.68,52.57-54.66-7.89-19.85-25.65-26.92-46.09-22.98-1.71.33-7.44,1.43-7.05,3.53s1.65,5.41,2.41,7.62c1.67,4.88,5.05,14.21,8.41,17.87,2.18,2.37,11.1,7.87,6.61,11.84-5.11,4.51-12.48-6.59-14.57-10.18-4.37-7.49-7.04-15.86-9.9-24ZM88.97,155.66c.15-11.43-4.71-23.69-14.43-29.99l-19.74,28.68.77.78,33.39.53Z"/>
      <path d="M226.16,42.15c-.32-3.73-1.6-7.38-.92-11.17.73-4.08,5.75-4.94,6.67-.61,1.08,5.07,2.2,18.1,1.63,23.09-.44,3.78-2.78,3.04-5.99,2.81-5.24-.38-15.64-2.5-20.95-3.76-2.95-.7-5.2-2.82-3-5.86,2-2.77,12.97,1.12,16.26.75.12-.52-.04-.68-.25-1.06-.71-1.26-8.42-8.6-10.01-9.96C175.5,7.33,119.24-.58,78.27,17.53,46.68,31.48,25.05,58.26,13.29,90.26c-5.16,3.28-5.68-.16-5.27-4.75.68-7.68,9.36-22.61,13.65-29.44C54.15,4.33,120.29-11.8,176.5,8.51c19.45,7.03,35.41,18.9,49.66,33.64Z"/>
      <path d="M44.82,234.49c-.88,3.89,4.22,13.85-.54,16.02-3.37,1.54-4.36-1.25-5.1-3.82-1.59-5.53-3.35-14.23-4.22-19.96-.2-1.31-.84-4.84-.02-5.77.8-.59,1.79-.61,2.74-.68,5.64-.42,14.33-.08,20,.55,2.21.25,5.18,1.63,4.79,4.22-.78,5.08-10.46,1.91-13.98,2.61l.25,1.06c11.41,7.72,23.2,15.06,36.04,20.21,45.45,18.22,93.02,10.41,132.62-17.16,6.07-4.23,14.91-16.14,19.63-18.21,4.81-2.11,5.52,3.11,3.57,6.2-2.19,3.48-8.99,9.62-12.32,12.38-39.75,32.81-89.8,43.1-139.19,26.67-16.07-5.35-30.66-14.43-44.27-24.31Z"/>
    </g>
  </g>
</svg>